<?xml version="1.0" encoding="utf-8"?>
<!-- Generator: Adobe Illustrator 17.0.0, SVG Export Plug-In . SVG Version: 6.00 Build 0)  -->
<!DOCTYPE svg PUBLIC "-//W3C//DTD SVG 1.1//EN" "http://www.w3.org/Graphics/SVG/1.1/DTD/svg11.dtd">
<svg version="1.1" id="Layer_2" xmlns="http://www.w3.org/2000/svg" xmlns:xlink="http://www.w3.org/1999/xlink" x="0px" y="0px"
	 width="600px" height="600px" viewBox="0 0 600 600" enable-background="new 0 0 600 600" xml:space="preserve">
<g>
	<path fill="#282974" d="M178.151,512.5L87.5,421.852L421.849,87.5l90.651,90.651L178.151,512.5z M104.5,421.852l73.651,73.648
		L495.5,178.151L421.849,104.5L104.5,421.852z"/>
	
		<rect x="148.432" y="442.448" transform="matrix(0.7071 0.7071 -0.7071 0.7071 370.9269 1.4211)" fill="#282974" width="70.631" height="12.021"/>
	
		<rect x="223.811" y="367.068" transform="matrix(0.7071 0.7071 -0.7071 0.7071 339.7157 -73.9564)" fill="#282974" width="70.633" height="12.021"/>
	
		<rect x="299.19" y="291.689" transform="matrix(0.7071 0.7071 -0.7071 0.7071 308.4925 -149.3384)" fill="#282974" width="70.633" height="12.021"/>
	
		<rect x="374.57" y="216.308" transform="matrix(0.7071 0.7071 -0.7071 0.7071 277.2554 -224.7175)" fill="#282974" width="70.631" height="12.021"/>
	
		<rect x="189.2" y="432.683" transform="matrix(0.7071 0.7071 -0.7071 0.7071 372.2008 -21.1845)" fill="#282974" width="44.946" height="12.021"/>
	
		<rect x="208.046" y="413.837" transform="matrix(0.7071 0.7071 -0.7071 0.7071 364.3933 -40.031)" fill="#282974" width="44.945" height="12.021"/>
	
		<rect x="226.891" y="394.992" transform="matrix(0.7071 0.7071 -0.7071 0.7071 356.61 -58.872)" fill="#282974" width="44.948" height="12.021"/>
	
		<rect x="264.578" y="357.306" transform="matrix(0.7071 0.7071 -0.7071 0.7071 340.9998 -96.5609)" fill="#282974" width="44.948" height="12.021"/>
	
		<rect x="283.424" y="338.459" transform="matrix(0.7071 0.7071 -0.7071 0.7071 333.1932 -115.4084)" fill="#282974" width="44.948" height="12.021"/>
	
		<rect x="302.268" y="319.613" transform="matrix(0.7071 0.7071 -0.7071 0.7071 325.3654 -134.2549)" fill="#282974" width="44.95" height="12.021"/>
	
		<rect x="339.955" y="281.926" transform="matrix(0.7071 0.7071 -0.7071 0.7071 309.7552 -171.9417)" fill="#282974" width="44.95" height="12.021"/>
	
		<rect x="358.801" y="263.08" transform="matrix(0.7071 0.7071 -0.7071 0.7071 301.9489 -190.7879)" fill="#282974" width="44.95" height="12.021"/>
	
		<rect x="377.647" y="244.234" transform="matrix(0.7071 0.7071 -0.7071 0.7071 294.1424 -209.6342)" fill="#282974" width="44.95" height="12.021"/>
	
		<rect x="415.334" y="206.547" transform="matrix(0.7071 0.7071 -0.7071 0.7071 278.5309 -247.3207)" fill="#282974" width="44.95" height="12.021"/>
	
		<rect x="434.18" y="187.701" transform="matrix(0.7071 0.7071 -0.7071 0.7071 270.7257 -266.1673)" fill="#282974" width="44.95" height="12.021"/>
</g>
</svg>
