<?xml version="1.0" encoding="utf-8"?>
<!-- Generator: Adobe Illustrator 17.0.0, SVG Export Plug-In . SVG Version: 6.00 Build 0)  -->
<!DOCTYPE svg PUBLIC "-//W3C//DTD SVG 1.1//EN" "http://www.w3.org/Graphics/SVG/1.1/DTD/svg11.dtd">
<svg version="1.1" id="Layer_2" xmlns="http://www.w3.org/2000/svg" xmlns:xlink="http://www.w3.org/1999/xlink" x="0px" y="0px"
	 width="600px" height="600px" viewBox="0 0 600 600" enable-background="new 0 0 600 600" xml:space="preserve">
<g>
	<g>
		<path fill="#282974" d="M442.278,454.196c2.008-1.752,4.566-3.704,5.355-3.058c1.762,4.732,0.631,9.464-3.158,14.005
			c-3.813,3.403-7.334,6.383-11.775,9.962c3.491-4.185,4.532-8.545,2.91-12.905C435.693,460.036,442.212,454.254,442.278,454.196"/>
		<path fill="#282974" d="M332.17,413.915c6.349,1.366,3.964,10.283,0.048,13.016c-1.211,0.846-2.17,0.909-3.015,0.965
			c-12.149-0.872-24.727-1.303-37.399-1.258c1.04-4.945,0.973-9.291-0.22-14.089C305.337,412.501,318.987,412.968,332.17,413.915"/>
		<path fill="#282974" d="M427.444,441.118c1.588-1.583,4.578-4.148,6.752-3.538c4.548,2.736,7.972,5.537,10.322,8.364
			c1.186,3.701-10.408,12.545-11.779,11.47c-2.166-2.605-5.321-5.186-9.513-7.707C421.26,447.469,427.381,441.18,427.444,441.118"/>
		<path fill="#282974" d="M414.395,436.045c0.459-0.553,4.572-5.37,7.591-4.499c1.477,0.61,2.904,1.233,4.279,1.87
			c3.29,2.058-4.205,11.337-8.853,12.481c-0.797,0.196-1.121,0.092-1.495-0.029c-1.267-0.586-2.583-1.161-3.944-1.723
			C409.835,442.938,412.324,438.536,414.395,436.045"/>
		<path fill="#282974" d="M343.225,420.62c0.652-1.497,2.603-4.993,6.631-5.116c23.102,2.508,44.111,6.556,60.832,11.932
			c4.153,2.393-2.812,11.585-7.432,12.857c-0.49,0.135-1.189,0.125-1.693,0.064c-15.41-4.954-34.771-8.685-56.061-10.996
			C340.281,427.983,343.193,420.693,343.225,420.62"/>
		<path fill="#282974" d="M436.897,472.248c1.042-0.886,2.077-1.78,3.096-2.692c-3.997,3.336-9.258,7.874-13.384,11.049
			C429.282,478.509,433.237,475.357,436.897,472.248"/>
		<path fill="#282974" d="M268.325,419.385c-0.201-2.837,0.803-7.774,5.843-8.285c7.937,0.238,9.648,11.634,5.366,15.969
			C275.443,431.211,268.844,426.686,268.325,419.385 M257.367,418.58c1.351,10.418,10.25,24.306,21.672,23.258
			c16.311-3.393,18.334-33.509,2.886-42.966C270.028,391.589,255.05,400.72,257.367,418.58"/>
		<path fill="#282974" d="M449.81,383.132c1.397-2.354,3.667-5.026,6.55-4.385c3.685,1.625,7.093,3.32,10.197,5.085
			c3.812,2.165,7.047,4.366,9.725,6.59c-3,4.535-5.472,8.966-8.012,14.366c-2.56-2.125-5.654-4.23-9.297-6.3
			c-2.968-1.686-6.226-3.307-9.749-4.86C445.359,390.893,449.764,383.209,449.81,383.132"/>
		<path fill="#282974" d="M261.86,360.927c0.145-1.743,1.044-5.884,6.231-6.695c21.174-0.789,42.46-0.57,63.005,0.575
			c-1.897,5.382-2.399,10.296-1.627,15.932c-19.641-1.095-39.991-1.304-60.234-0.549
			C261.488,369.569,261.853,361.013,261.86,360.927"/>
		<path fill="#282974" d="M202.988,366.661c-0.158-1.744-0.011-5.941,4.766-7.234c0.879-0.123,1.763-0.244,2.652-0.363
			c11.266-1.515,22.81-2.694,34.487-3.551c8.445,0.376,9.368,10.706,5.664,14.302c-1.179,1.145-2.466,1.396-3.5,1.599
			c-11.162,0.819-22.199,1.947-32.97,3.395c-0.85,0.114-1.695,0.23-2.535,0.347C204.105,375.275,202.996,366.747,202.988,366.661"/>
		<path fill="#282974" d="M414.285,372.301c1.225-2.458,3.475-5.317,7.237-4.979c7.167,1.771,13.904,3.704,20.132,5.789
			c5.473,2.984,0.339,13.739-4.544,15.113c-0.562,0.158-1.369,0.102-1.945,0.014c-5.954-1.994-12.395-3.841-19.247-5.535
			C411.324,380.757,413.249,374.381,414.285,372.301"/>
		<path fill="#282974" d="M368.467,373.242c3.248-7.06,3.038-12.941,2.97-14.874c10.007,1.232,19.654,2.701,28.821,4.397
			c6.742,2.275,3.303,12.281-1.181,14.851c-1.432,0.82-2.572,0.771-3.488,0.73c-8.764-1.62-17.987-3.025-27.553-4.203
			C368.165,373.873,368.342,373.514,368.467,373.242"/>
		<path fill="#282974" d="M178.162,372.032c-0.646-2.512-0.656-7.063,3.405-8.185c2.637-0.53,5.334-1.044,8.091-1.54
			c6.848-0.764,10.944,9.809,7.077,14.186c-0.9,1.018-1.891,1.268-2.483,1.416c-2.635,0.474-5.214,0.966-7.735,1.473
			C182.202,379.939,179.034,375.419,178.162,372.032"/>
		<path fill="#282974" d="M476.607,400.222c1.692-2.769,4.948-7.089,6.423-5.714c2.248,4.117-6.988,18.528-9.894,17.948
			C471.159,412.062,473.419,405.441,476.607,400.222 M472.568,396.452c-3.645,6.411-13.08,25.603-8.768,29.571
			c8.507,3.221,31.003-35.032,26.745-45.478C488.489,375.5,480.425,382.636,472.568,396.452"/>
		<path fill="#282974" d="M342.517,362.594c0.696-3.168,3.459-8.489,9.398-8.34c8.219,1.256,8.471,13.088,2.166,18.082
			c-5.963,4.724-12.877-0.416-11.744-8.73C342.379,363.3,342.451,362.895,342.517,362.594 M329.389,361.727
			c-1.433,10.908,3.322,27.3,18.081,27.84c21.148-1.366,32.43-34.275,16.314-47.587C350.915,331.352,331.95,342.241,329.389,361.727
			"/>
		<path fill="#282974" d="M415.943,307.512c0.523-1.76,2.247-5.82,6.95-5.497c18.811,3.949,35.487,8.804,49.077,14.472
			c-1.917,5.298-2.96,10.376-3.382,16.465c-13.332-5.56-29.691-10.322-48.145-14.196C413.658,316.339,415.917,307.6,415.943,307.512
			"/>
		<path fill="#282974" d="M355.65,299.329c0.446-1.803,2.073-6.012,7.542-6.145c13.252,1.269,26.064,2.897,38.231,4.864
			c7.565,2.245,6.761,12.86,1.77,15.982c-1.452,0.908-2.761,0.867-3.813,0.834c-11.937-1.93-24.507-3.527-37.509-4.772
			C353.806,308.337,355.628,299.418,355.65,299.329"/>
		<path fill="#282974" d="M255.569,297.678c0.261-1.852,1.494-6.255,7.296-7.144c14.162-0.572,28.38-0.738,42.449-0.517
			c8.881,1.144,9.301,11.789,4.021,15.6c-1.533,1.107-3.039,1.251-4.249,1.368c-13.803-0.217-27.753-0.054-41.647,0.507
			C254.672,306.872,255.556,297.769,255.569,297.678"/>
		<path fill="#282974" d="M239.311,291.87c9.417,0.373,9.58,11.356,5.134,15.193c-1.435,1.238-2.921,1.516-4.115,1.739
			c-12.764,0.937-25.384,2.226-37.701,3.882c-10.225,1.375-19.859,2.952-28.871,4.705c0.433-6.078-0.279-11.249-2.308-16.766
			c9.187-1.788,19.009-3.395,29.435-4.798C213.438,294.139,226.301,292.825,239.311,291.87"/>
		<path fill="#282974" d="M506.128,351.745c1.199-4.354,1.605-4.515,1.778-4.585c0.029,0.081,0.067,0.189,0.095,0.269
			c0.236,1.868,0.152,3.731-0.246,5.584c-1.318,5.156-2.887,12.083-4.415,17.181c0.689-2.279,0.895-4.577,0.604-6.882
			C503.88,360.066,506.106,351.827,506.128,351.745"/>
		<path fill="#282974" d="M504.808,339.107c1.464,3.678-1.29,15.866-3.683,16.301c-0.094-0.078-0.22-0.183-0.314-0.261
			c-2.165-3.356-5.422-6.697-9.819-9.986c2.101-5.161,3.274-10.168,3.803-16.236C499.279,332.278,502.6,335.685,504.808,339.107"/>
		<path fill="#282974" d="M324.065,298.197c0.334-2.695,2.342-7.265,7.75-7.301c3.443,0.176,6.869,0.374,10.275,0.596
			c7.632,0.944,9.09,10.991,3.854,15.328c-1.969,1.632-3.866,1.618-4.777,1.612c-3.341-0.218-6.703-0.412-10.081-0.584
			C325.493,307.241,323.613,301.839,324.065,298.197"/>
		<path fill="#282974" d="M478.413,327.233c0.851-3.19,3.196-8.206,6.593-6.776c6.041,4.067,2.057,20.118-3.042,20.69
			C478.326,341.554,476.501,334.402,478.413,327.233 M469.935,323.413c-2.603,11.647-2.245,29.845,6.699,33.839
			c15.057,3.936,23.414-35.887,14.318-49.904C484.41,297.267,474,305.224,469.935,323.413"/>
		<path fill="#282974" d="M146.371,313.967c-0.299-3.145,0.51-9.538,5.714-11.226c7.944-1.363,11.638,11.525,7.039,18.076
			c-4.038,5.752-11.228,2.458-12.613-5.779C146.458,314.718,146.402,314.289,146.371,313.967 M135.54,315.346
			c1.586,14.892,11.979,28.155,24.922,24.164c20.511-8.931,15.577-47.162-2.21-53.271
			C145.232,281.765,133.557,296.727,135.54,315.346"/>
		<path fill="#282974" d="M138.404,250.025c0.339-1.828,1.593-6.269,5.916-8.04c12.12-3.236,25.78-6.116,40.866-8.548
			c-1.81,5.85-1.992,10.94-0.591,16.505c-15.167,2.445-28.9,5.34-41.085,8.593C137.836,259.21,138.039,251.994,138.404,250.025"/>
		<path fill="#282974" d="M246.713,233.216c0.375-1.771,1.889-5.989,7.83-6.914c23.887-1.222,48.038-1.29,71.491-0.297
			c-1.538,5.515-1.496,10.593,0.135,16.467c-23.576-0.998-47.854-0.93-71.867,0.299
			C246.413,242.331,246.309,235.122,246.713,233.216"/>
		<path fill="#282974" d="M429.573,253.98c1.462-7.307-0.288-13.529-0.863-15.574c15.202,3.34,28.943,7.277,40.716,11.762
			c6.311,3.465,6.518,15.256,2.711,16.644c-0.519,0.19-1.3,0.06-1.84-0.052c-11.835-4.509-25.65-8.466-40.932-11.824
			C429.427,254.649,429.516,254.268,429.573,253.98"/>
		<path fill="#282974" d="M103.437,263.351c0.28-1.848,1.253-6.366,4.243-8.403c5.35-2.556,11.396-5.008,18.11-7.333
			c5.967-1.068,5.095,9.73,1.92,14.189c-1.052,1.478-1.645,1.782-2.826,2.39c-6.748,2.336-12.826,4.802-18.203,7.371
			C102.866,272.572,103.066,265.801,103.437,263.351"/>
		<path fill="#282974" d="M87.614,274.611c0.239-2.489,1.189-7.665,3.076-9.44c1.177-0.929,2.437-1.85,3.777-2.761
			c2.678-1.452,3.109,6.055,1.368,12.05c-0.994,3.424-2.079,4.313-2.435,4.605c-1.347,0.917-2.614,1.842-3.797,2.776
			C87.656,283.067,87.266,278.251,87.614,274.611"/>
		<path fill="#282974" d="M480.725,261.25c0.028-0.601,0.364-5.833,3.517-4.615c0.107,0.042,12.399,5.894,19.795,13.62
			c5.314,5.55,6.013,8.458,7.283,13.737c0.361,5.45,1.045,12.709,1.18,18.169c-0.208-8.804-7.376-17.744-22.266-26.203
			c-1.61-0.915-3.293-1.814-5.044-2.696C481.153,270.399,480.642,263.059,480.725,261.25"/>
		<path fill="#282974" d="M198.329,238.535c0.41-3.259,2.931-9.092,9.776-10.283c9.267-0.614,11.857,9.974,6.189,16.697
			c-5.748,6.817-15.487,4.197-16.032-4.313C198.222,240.006,198.251,239.16,198.329,238.535 M183.745,240.694
			c-0.877,11.992,6.916,28.142,26.43,24.724c24.428-6.994,29.226-39.673,12.381-50.058
			C207.023,205.783,185.26,219.989,183.745,240.694"/>
		<path fill="#282974" d="M340.256,233.813c0.261-3.193,2.492-8.561,9.2-8.429c9.589,1.234,12.367,13.413,6.266,18.601
			C349.338,249.412,339.509,242.948,340.256,233.813 M324.921,233.011c-0.346,11.896,8.058,29.661,27.195,30.013
			c24.446-2.316,27.815-34.215,10.263-47.892C346.514,202.77,325.51,212.795,324.921,233.011"/>
		<path fill="#282974" d="M400.921,240.263c0.164-3.176,2.014-8.376,7.909-7.716c9.085,2.133,11.426,15.357,5.29,19.607
			C408.498,256.046,400.48,248.823,400.921,240.263 M387.113,236.606c-0.712,12.847,7.205,31.734,23.921,33.784
			c21.889,0.434,24.927-30.411,9.331-46.333C406.541,209.945,388.206,216.865,387.113,236.606"/>
		<path fill="#282974" d="M495.864,223.781c-0.515-1.282-1.027-2.565-1.576-3.833l2.092,4.928l3.877,10.18l-0.106-0.29
			C499.35,232.639,497.49,227.826,495.864,223.781"/>
		<path fill="#282974" d="M291.241,182.215c1.947-6.185,0.382-10.95-0.132-12.516c17.901-0.063,35.668,0.545,52.829,1.777
			c8.221,1.359,9.708,9.777,5.286,12.512c-1.316,0.814-2.724,0.849-3.856,0.877c-17.672-1.27-35.969-1.895-54.403-1.83
			C291.048,182.789,291.163,182.463,291.241,182.215"/>
		<path fill="#282974" d="M475.69,205.995c-0.342-1.17-1.277-4.895,1.061-3.712c5.921,3.561,10.378,7.208,13.438,10.887
			c2.301,3.201,6.377,12.918,6.23,14.853c-0.047,0.014-0.108,0.032-0.155,0.045c-0.087-0.08-0.202-0.187-0.288-0.266
			c-3.151-3.789-7.741-7.544-13.839-11.211C478.016,213.457,475.711,206.068,475.69,205.995"/>
		<path fill="#282974" d="M458.842,198.929c-0.615-2.136-0.882-5.489,2.015-4.501c1.922,0.794,3.78,1.606,5.571,2.434
			c5.054,2.7,9.084,13.272,6.454,14.309c-0.469,0.185-0.909,0.015-1.375-0.164c-1.844-0.853-3.757-1.689-5.737-2.507
			C462.427,206.887,459.706,201.932,458.842,198.929"/>
		<path fill="#282974" d="M361.157,178.119c0.093-1.392,0.845-4.624,5.803-4.574c30.074,3.265,57.423,8.535,79.19,15.533
			c6.654,2.947,9.47,12.838,6.231,13.979c-0.497,0.175-1.238,0.031-1.756-0.065c-22.416-7.207-50.579-12.634-81.549-15.996
			C361.039,185.344,361.152,178.19,361.157,178.119"/>
		<path fill="#282974" d="M259.152,176.228c0.506-2.619,3.105-7.191,9.635-7.717c8.978,0.095,11.312,8.871,5.714,13.974
			c-6.096,5.557-16.069,2.073-15.466-5.403C259.056,176.824,259.103,176.482,259.152,176.228 M244.757,175.728
			c-2.775,12.234,6.577,24.959,24.431,23.657c23.43-3.484,29.807-27.735,15.205-38.789
			C269.769,149.525,248.286,160.166,244.757,175.728"/>
		<path fill="#282974" d="M436.435,151.853c-1.536-2.306-1.161-2.795-1-3.003c0.297-0.025,0.697,0.067,0.981,0.158
			c3.22,1.42,6.199,2.902,8.913,4.444c3.331,1.893,6.16,3.817,8.5,5.76c2.997,3.523,5.754,6.901,9.516,11.659
			c-2.481-2.06-5.479-4.1-9.01-6.106c-2.877-1.634-6.034-3.205-9.448-4.71C440.431,157.66,436.473,151.911,436.435,151.853"/>
		<path fill="#282974" d="M265.215,131.626c0.451-1.038,2.004-3.51,6.66-4.041c18.507-0.69,37.111-0.498,55.069,0.502
			c-0.573,3.243,0.009,6.262,1.885,9.789c-19.035-1.061-38.756-1.264-58.374-0.532C264.264,137.078,264.607,133.025,265.215,131.626
			"/>
		<path fill="#282974" d="M211.583,136.848c0.766-1.095,3.035-3.747,7.56-4.725c0.768-0.107,1.541-0.213,2.317-0.318
			c9.846-1.324,19.935-2.354,30.14-3.104c6.093,0.038,5.682,4.702,3.144,7.213c-2.074,2.052-4.673,2.445-5.783,2.613
			c-10.818,0.794-21.514,1.887-31.952,3.29c-0.823,0.111-1.642,0.223-2.457,0.337C208.88,142.469,210.551,138.325,211.583,136.848"
			/>
		<path fill="#282974" d="M404.073,141.987c-0.708-1.581-0.955-3.378,1.897-2.963c6.264,1.548,12.152,3.237,17.595,5.06
			c5.916,2.516,11.019,10.049,9.027,10.859c-0.371,0.151-0.939-0.023-1.329-0.109c-5.77-1.932-12.012-3.723-18.652-5.364
			C406.767,147.499,404.097,142.041,404.073,141.987"/>
		<path fill="#282974" d="M387.385,135.042c6.452,1.733,10.276,8.105,8.019,9.853c-0.668,0.517-1.682,0.427-2.496,0.354
			c-8.493-1.571-17.432-2.932-26.703-4.073c-0.105-3.384-1.343-6.46-4.013-9.977C370.939,132.275,379.372,133.56,387.385,135.042"/>
		<path fill="#282974" d="M188.421,141.549c1.057-1.521,4.056-4.641,7.837-5.561c2.304-0.464,4.662-0.913,7.071-1.346
			c4.237-0.579,3.814,2.86,1.646,5.58c-0.683,0.857-3.22,3.721-7.187,4.603c-2.554,0.46-5.053,0.936-7.496,1.427
			C186.318,146.868,186.805,143.873,188.421,141.549"/>
		<path fill="#282974" d="M461.482,167.373c-1.049-1.27-2.108-2.533-3.193-3.773l0.884,1.009c3.238,4.012,7.689,9.258,10.766,13.393
			C469.215,177.044,465.26,171.948,461.482,167.373 M457.768,163.928c6.129,7.474,9.926,12.473,21.196,27.312
			c0.065,0.084,0.151,0.197,0.216,0.282c-12.173-17.808-12.405-18.148-20.007-26.912c-3.491-3.726-8.035-8.803-11.668-12.39
			l0.049,0.049C450.14,154.893,453.576,158.816,457.768,163.928"/>
		<path fill="#282974" d="M338.859,132.963c-0.258-1.871,0.637-4.974,5.63-4.738c7.595,0.974,11.871,8.319,8.087,11.267
			C348.467,142.694,339.621,138.483,338.859,132.963 M326.85,132.177c1.231,8.743,11.396,18.653,25.672,19.418
			c15.588-0.288,17.243-12.949,7.615-22.728c-13.095-13.299-33.395-12.402-33.417,1.477
			C326.72,130.884,326.772,131.62,326.85,132.177"/>
	</g>
</g>
</svg>
